<?xml version="1.0" standalone="no"?>
<!DOCTYPE svg PUBLIC "-//W3C//DTD SVG 20010904//EN"
 "http://www.w3.org/TR/2001/REC-SVG-20010904/DTD/svg10.dtd">
<svg version="1.0" xmlns="http://www.w3.org/2000/svg"
 width="360.000000pt" height="427.000000pt" viewBox="0 0 360.000000 427.000000"
 preserveAspectRatio="xMidYMid meet">

<g transform="translate(0.000000,427.000000) scale(0.100000,-0.100000)"
fill="#000000" stroke="none">
<path d="M1586 3739 c-201 -14 -349 -46 -454 -96 -110 -54 -113 -59 -111 -227
1 -78 5 -151 10 -164 6 -14 5 -29 -3 -42 -9 -14 -9 -22 2 -35 11 -14 10 -18
-11 -32 -50 -33 -159 -155 -197 -220 -54 -94 -82 -181 -93 -293 -11 -113 -7
-1886 4 -1915 7 -18 2 -22 -40 -34 -65 -19 -81 -31 -76 -60 2 -14 5 -27 8 -29
2 -2 0 -15 -5 -28 -8 -19 -5 -27 13 -38 12 -8 36 -18 52 -22 17 -4 35 -10 40
-14 13 -10 126 -27 235 -35 47 -4 96 -9 110 -12 14 -3 206 -7 428 -10 409 -6
602 2 847 33 197 25 365 73 365 106 0 6 11 25 24 42 56 74 70 116 72 221 l2
100 -7 -80 c-3 -44 -10 -86 -14 -93 -15 -23 -26 -12 -17 17 4 16 4 47 0 67 -5
21 -7 42 -4 46 3 4 -2 8 -10 8 -20 0 -21 16 -1 24 9 3 15 18 15 35 0 47 21
132 31 125 12 -7 12 189 -1 202 -6 6 -6 91 1 239 14 287 14 523 0 640 -6 50
-11 145 -11 211 0 131 -3 138 -55 147 -16 3 -38 8 -47 12 -17 7 -18 -22 -18
-526 0 -294 4 -540 9 -548 5 -8 18 -12 30 -8 12 3 24 1 27 -4 5 -9 -1 -11 -46
-13 l-25 -1 -5 295 -5 295 -63 5 c-40 3 -66 10 -72 20 -5 8 -10 108 -10 221 0
241 -1 240 81 221 60 -14 71 -10 66 26 -3 25 -8 27 -88 38 -46 7 -115 17 -154
23 -154 23 -445 34 -770 28 -286 -5 -397 -12 -670 -42 -40 -4 -44 -3 -21 5 41
13 243 37 426 51 204 15 781 6 997 -16 89 -9 205 -27 258 -39 53 -13 105 -21
115 -19 34 9 43 64 29 161 -16 112 -56 196 -103 219 -31 14 -33 18 -24 39 8
18 6 28 -11 53 -23 32 -91 91 -128 110 -22 11 -22 13 -7 36 9 14 14 31 11 39
-3 7 -1 18 5 24 12 12 12 71 -1 192 -15 141 -39 188 -111 225 -48 24 -168 58
-250 70 -25 4 -57 9 -72 11 -45 7 -310 24 -353 22 -22 0 -89 -4 -149 -9z m869
-448 c16 -9 32 -26 33 -37 4 -17 0 -16 -24 7 -16 15 -42 34 -59 43 -26 15 -27
16 -5 10 14 -3 38 -14 55 -23z m-1133 -72 l22 -12 -26 -13 c-44 -23 -234 -103
-262 -110 -28 -7 -33 3 -13 27 25 31 108 92 140 103 48 16 114 18 139 5z
m1003 -19 c119 -29 176 -59 181 -97 2 -11 -1 -11 -11 -3 -10 8 -19 8 -34 -2
-12 -7 -21 -16 -21 -20 0 -4 -16 -10 -35 -14 -41 -7 -116 9 -205 46 -36 15
-89 33 -117 40 -29 8 -65 24 -80 36 l-28 23 25 10 c39 17 223 6 325 -19z m258
-659 c9 -1 17 -9 17 -18 0 -15 -2 -16 -10 -3 -9 13 -10 13 -10 0 0 -13 -1 -13
-10 0 -9 13 -10 13 -10 0 0 -13 -1 -13 -10 0 -7 11 -10 11 -10 2 0 -7 -6 -12
-12 -11 -25 3 -38 -1 -38 -12 0 -5 5 -7 10 -4 15 9 12 -1 -3 -13 -11 -9 -13
-5 -13 18 0 16 3 27 7 24 4 -2 10 0 13 5 4 5 -2 12 -11 14 -10 2 2 3 27 2 25
-2 53 -3 63 -4z m-1343 -63 c-1 -7 -7 -24 -15 -38 -20 -35 -18 -45 10 -58 38
-18 33 -50 -12 -69 -36 -15 -171 -43 -203 -42 -8 0 5 9 28 20 24 10 48 16 53
13 15 -9 119 26 126 42 8 23 -26 53 -74 66 -24 5 -43 12 -43 14 0 22 23 54 40
54 16 0 20 -7 21 -32 0 -32 1 -32 10 -8 10 25 35 50 51 50 4 0 8 -6 8 -12z
m-142 -30 c-3 -26 -38 -38 -38 -14 0 9 -4 16 -10 16 -5 0 -10 -4 -10 -10 0 -5
-7 -10 -15 -10 -8 0 -15 4 -15 10 0 14 32 29 63 30 24 0 28 -4 25 -22z m-72
-48 c-3 -11 -9 -29 -12 -40 -4 -11 -2 -20 3 -20 6 0 14 15 19 33 7 22 17 33
32 35 20 3 21 1 11 -28 -13 -37 -49 -63 -81 -58 -24 3 -26 25 -7 75 11 29 44
32 35 3z m142 -5 c28 -6 32 -10 26 -28 -14 -47 -51 -49 -57 -4 l-3 32 -13 -32
c-8 -21 -20 -33 -31 -33 -17 0 -18 2 -3 40 11 28 21 39 32 36 9 -3 31 -7 49
-11z m339 -361 c2 -6 -5 -14 -17 -17 -16 -4 -20 -13 -20 -51 0 -25 -4 -46 -10
-46 -5 0 -10 22 -10 49 0 42 -3 50 -22 56 -21 7 -20 8 12 15 44 10 62 8 67 -6z
m82 -57 c17 -47 17 -57 5 -57 -7 0 -14 5 -14 10 0 6 -11 10 -25 10 -14 0 -25
-4 -25 -10 0 -5 -7 -10 -15 -10 -19 0 -19 4 2 60 32 87 42 87 72 -3z m344 9
c19 -57 17 -80 -5 -58 -15 15 -58 16 -58 2 0 -5 -7 -10 -14 -10 -13 0 -12 9 4
55 33 96 44 97 73 11z m108 54 c20 -11 26 -54 8 -65 -7 -5 -5 -15 6 -31 14
-22 14 -24 -2 -24 -10 0 -26 12 -35 28 l-17 27 -1 -27 c0 -18 -5 -28 -15 -28
-12 0 -15 14 -15 65 0 63 1 65 26 65 14 0 34 -5 45 -10z m-794 -12 c16 -13 17
-90 1 -106 -7 -7 -25 -12 -40 -12 -27 0 -28 1 -28 58 0 32 2 61 5 63 9 10 50
8 62 -3z m152 -2 c16 -19 -4 -32 -24 -16 -15 13 -39 4 -30 -11 4 -5 14 -9 24
-9 43 0 52 -62 10 -75 -26 -8 -59 3 -59 20 0 11 8 13 30 9 18 -4 30 -2 30 4 0
5 -13 15 -30 21 -22 7 -30 16 -30 34 0 13 3 27 7 30 12 12 60 7 72 -7z m270
-23 l20 -38 1 38 c0 20 5 37 10 37 6 0 10 -27 10 -60 0 -33 -4 -60 -10 -60 -5
0 -18 17 -29 38 -21 38 -24 37 -21 -10 1 -20 -3 -28 -14 -28 -13 0 -16 12 -16
60 0 72 19 81 49 23z m78 -10 c-3 -10 -5 -2 -5 17 0 19 2 27 5 18 2 -10 2 -26
0 -35z m81 -4 c2 -32 -2 -50 -13 -59 -8 -7 -19 -9 -23 -5 -4 4 -1 10 6 12 19
7 15 80 -5 93 -16 9 -15 10 7 8 22 -3 25 -8 28 -49z m340 -4 c4 -57 -11 -74
-58 -67 -30 4 -30 5 -30 64 l0 59 43 -3 42 -3 3 -50z m-1082 21 c3 -13 4 -38
2 -57 -3 -30 -6 -34 -33 -34 -27 0 -30 3 -33 37 -2 20 2 46 8 58 15 28 48 26
56 -4z m60 -76 c13 0 24 -4 24 -10 0 -5 -13 -10 -30 -10 l-30 0 2 63 2 62 3
-52 c4 -49 6 -53 29 -53z m-146 76 c0 -9 -7 -12 -20 -9 -18 5 -20 0 -20 -36 0
-31 4 -41 16 -41 12 0 15 6 10 25 -4 14 -2 25 3 25 5 0 11 -13 13 -30 3 -22 0
-31 -14 -36 -10 -3 -22 -2 -28 1 -11 7 -14 98 -3 108 12 13 43 7 43 -7z m1610
-16 c0 -27 -3 -30 -30 -28 -20 1 -26 6 -20 12 6 6 10 18 10 28 0 11 7 18 20
18 16 0 20 -7 20 -30z m-20 -85 c-5 -6 -6 -16 -2 -20 4 -5 1 -5 -6 -1 -9 6
-10 12 -3 20 7 9 7 17 -2 26 -10 12 -9 12 6 1 12 -10 14 -17 7 -26z m-92 -161
c-51 -107 -52 -111 -58 -219 l-5 -110 -37 -3 -38 -3 0 95 0 94 -58 121 -59
121 47 0 46 0 23 -55 c20 -48 41 -72 41 -47 0 5 9 19 20 32 12 13 18 30 15 37
-2 8 0 11 5 8 6 -3 10 2 10 12 0 15 9 20 42 22 23 1 44 4 47 7 18 18 5 -20
-41 -112z m-1008 95 c0 -7 -21 -106 -47 -221 l-47 -208 -41 0 -42 0 -22 113
c-13 61 -25 119 -28 127 -3 8 -18 -39 -32 -105 l-27 -120 -35 -3 -34 -3 -33
198 c-18 109 -32 201 -32 206 0 4 13 7 28 7 l28 0 18 -125 c11 -69 22 -125 25
-125 3 0 17 59 30 130 l24 130 37 0 37 0 22 -112 c32 -166 32 -165 57 -30 12
68 24 129 27 136 6 16 87 21 87 5z m205 -169 l75 0 0 85 0 85 43 0 42 0 -3
-215 -3 -215 -39 0 -40 0 0 90 0 90 -75 0 -75 0 0 -90 0 -90 -40 0 -40 0 0
214 0 215 38 3 37 3 3 -87 3 -88 74 0z m493 171 c7 -1 12 -16 12 -41 l0 -40
-95 0 -95 0 0 -45 0 -45 90 0 90 0 0 -42 0 -43 -72 1 c-103 1 -108 -1 -108
-46 0 -33 3 -38 28 -43 15 -3 57 -3 95 -1 l67 3 0 -44 0 -45 -135 0 -135 0 0
214 c0 215 0 215 23 219 17 4 154 2 235 -2z m382 -21 c0 -5 -4 -10 -10 -10 -5
0 -10 5 -10 10 0 6 5 10 10 10 6 0 10 -4 10 -10z m51 -102 c2 -87 -2 -123 -14
-130 -9 -6 -9 -8 1 -8 8 0 12 -22 12 -75 0 -53 -4 -75 -12 -76 -7 -1 -24 -2
-38 -3 l-24 -1 -1 109 c0 78 4 110 13 113 7 3 12 22 12 44 0 30 3 37 15 33 11
-5 15 1 15 20 0 50 20 25 21 -26z m-1586 -48 l0 -45 -38 -2 c-31 -1 -38 3 -43
23 -3 13 -3 36 0 50 6 22 11 25 44 22 37 -3 37 -3 37 -48z m0 -130 c0 -43 -2
-45 -30 -48 -32 -4 -30 8 2 12 13 2 18 12 18 37 0 31 -3 34 -30 34 -29 0 -30
-2 -29 -43 0 -26 -2 -38 -7 -30 -12 18 -11 62 2 74 5 6 24 11 42 10 31 -1 32
-2 32 -46z m-78 -117 c-3 -10 -5 -4 -5 12 0 17 2 24 5 18 2 -7 2 -21 0 -30z
m83 27 c0 -5 -12 -10 -27 -9 l-28 1 25 8 c14 4 26 8 28 9 1 1 2 -3 2 -9z m200
-111 c0 -6 -4 -7 -10 -4 -5 3 -10 11 -10 16 0 6 5 7 10 4 6 -3 10 -11 10 -16z
m55 14 c-11 -3 -23 -10 -27 -17 -5 -7 -8 -5 -8 7 0 12 7 17 28 16 21 -1 22 -2
7 -6z m69 -8 c-25 -19 -34 -19 -34 0 0 10 10 15 27 15 26 0 26 -1 7 -15z m46
0 c0 -8 -4 -15 -10 -15 -5 0 -10 7 -10 15 0 8 5 15 10 15 6 0 10 -7 10 -15z
m30 0 c0 -8 -4 -15 -10 -15 -5 0 -10 7 -10 15 0 8 5 15 10 15 6 0 10 -7 10
-15z m36 6 c-4 -5 0 -12 6 -14 8 -3 6 -6 -4 -6 -10 -1 -18 6 -18 14 0 8 5 15
11 15 5 0 8 -4 5 -9z m31 -13 c-3 -8 -6 -5 -6 6 -1 11 2 17 5 13 3 -3 4 -12 1
-19z m831 -46 c2 -51 0 -62 -13 -62 -12 0 -15 13 -15 66 0 48 3 65 13 62 7 -3
13 -28 15 -66z m59 36 l18 -33 3 33 c6 57 27 31 27 -33 0 -69 -16 -81 -42 -33
l-18 33 -3 -33 c-5 -55 -25 -30 -24 31 1 71 0 67 12 67 5 0 17 -15 27 -32z
m-837 12 c0 -5 -2 -10 -4 -10 -3 0 -8 5 -11 10 -3 6 -1 10 4 10 6 0 11 -4 11
-10z m308 1 c8 -4 12 -19 10 -32 -2 -18 -10 -25 -30 -27 -22 -3 -28 -9 -28
-28 0 -13 -4 -24 -10 -24 -6 0 -10 27 -10 60 0 59 1 60 28 60 15 0 33 -4 40
-9z m112 -6 c10 -12 10 -21 1 -41 -9 -20 -9 -30 0 -40 7 -8 9 -18 5 -22 -4 -4
-18 5 -30 21 -27 34 -36 34 -36 2 0 -14 -4 -25 -10 -25 -6 0 -10 27 -10 60 l0
60 34 0 c18 0 39 -7 46 -15z m108 3 c17 -17 15 -83 -2 -97 -8 -7 -27 -11 -43
-9 -25 3 -28 7 -31 47 -2 24 -1 50 2 57 7 17 58 18 74 2z m112 2 c0 -5 -7 -10
-15 -10 -11 0 -15 -12 -15 -51 0 -35 -4 -49 -12 -47 -8 3 -12 21 -11 47 1 35
-2 44 -18 48 -35 10 -20 23 26 23 25 0 45 -4 45 -10z m90 0 c0 -5 -12 -10 -26
-10 -16 0 -24 -5 -21 -12 2 -7 14 -12 25 -10 15 2 22 -2 22 -12 0 -10 -9 -16
-25 -16 -33 0 -32 -18 0 -22 40 -5 30 -23 -12 -23 l-38 0 -3 58 -3 57 41 0
c22 0 40 -4 40 -10z m375 -347 c-8 -64 -11 -73 -27 -73 -6 0 -7 7 -3 18 19 45
23 82 9 82 -28 0 -11 26 20 29 4 1 5 -25 1 -56z m55 3 c0 -56 -13 -77 -33 -57
-8 8 -7 11 5 11 11 0 15 10 15 39 0 29 -3 38 -13 34 -10 -4 -12 0 -8 11 3 9
12 16 20 16 10 0 14 -15 14 -54z m-93 -18 c-3 -8 -6 -5 -6 6 -1 11 2 17 5 13
3 -3 4 -12 1 -19z m-42 -38 c-3 -5 -25 -10 -48 -11 -34 -1 -37 -2 -17 -8 22
-6 23 -8 7 -14 -10 -4 -31 -6 -45 -6 -17 1 -21 3 -9 6 20 5 23 22 5 25 -11 1
37 9 100 16 7 1 10 -2 7 -8z m-125 -10 c0 -5 -4 -10 -10 -10 -5 0 -10 5 -10
10 0 6 5 10 10 10 6 0 10 -4 10 -10z m-33 -6 c-3 -3 -12 -4 -19 -1 -8 3 -5 6
6 6 11 1 17 -2 13 -5z m163 -4 c0 -5 -10 -10 -22 -9 -22 0 -22 1 -3 9 11 5 21
9 23 9 1 1 2 -3 2 -9z m-245 -20 c3 -5 -1 -10 -10 -10 -9 0 -13 5 -10 10 3 6
8 10 10 10 2 0 7 -4 10 -10z m45 0 c0 -5 -7 -10 -15 -10 -8 0 -15 5 -15 10 0
6 7 10 15 10 8 0 15 -4 15 -10z m30 0 c0 -5 -2 -10 -4 -10 -3 0 -8 5 -11 10
-3 6 -1 10 4 10 6 0 11 -4 11 -10z m250 0 c0 -5 -4 -10 -10 -10 -5 0 -10 5
-10 10 0 6 5 10 10 10 6 0 10 -4 10 -10z m-60 -15 c0 -8 -4 -15 -8 -15 -4 0
-84 -6 -177 -14 -244 -21 -545 -30 -575 -18 -21 9 -13 11 45 12 39 1 93 3 120
5 28 2 124 6 215 10 130 6 314 22 373 34 4 0 7 -6 7 -14z m47 -27 c-3 -8 -6
-5 -6 6 -1 11 2 17 5 13 3 -3 4 -12 1 -19z m-1198 -2 c80 -4 147 -9 150 -11 7
-7 -257 -6 -328 1 -72 8 -83 22 -13 18 26 -1 112 -5 191 -8z m1126 -5 c-3 -5
3 -12 12 -15 10 -3 -1 -3 -25 -2 -23 2 -46 7 -50 11 -4 4 5 5 21 3 15 -3 30
-1 33 3 3 5 7 9 10 9 3 0 3 -4 -1 -9z"/>
<path d="M1545 1990 c-8 -13 -1 -24 14 -19 6 3 7 10 2 18 -6 10 -10 10 -16 1z"/>
<path d="M1890 1986 c0 -9 5 -16 10 -16 6 0 10 4 10 9 0 6 -4 13 -10 16 -5 3
-10 -1 -10 -9z"/>
<path d="M2000 2005 c0 -8 7 -15 15 -15 8 0 15 7 15 15 0 8 -7 15 -15 15 -8 0
-15 -7 -15 -15z"/>
<path d="M1200 1977 c0 -38 6 -48 26 -40 8 3 14 19 14 39 0 27 -4 34 -20 34
-16 0 -20 -7 -20 -33z"/>
<path d="M2110 1980 c0 -29 4 -40 15 -40 11 0 15 11 15 40 0 29 -4 40 -15 40
-11 0 -15 -11 -15 -40z"/>
<path d="M1040 1970 c0 -29 4 -40 15 -40 11 0 15 11 15 40 0 29 -4 40 -15 40
-11 0 -15 -11 -15 -40z"/>
<path d="M965 1702 c-6 -7 -6 -57 0 -64 3 -2 18 -3 35 0 25 4 30 9 30 32 0 23
-5 28 -30 32 -17 3 -32 2 -35 0z"/>
<path d="M1820 1315 c0 -8 9 -15 20 -15 11 0 20 7 20 15 0 8 -9 15 -20 15 -11
0 -20 -7 -20 -15z"/>
<path d="M1920 1315 c0 -8 9 -15 20 -15 11 0 20 7 20 15 0 8 -9 15 -20 15 -11
0 -20 -7 -20 -15z"/>
<path d="M2034 1316 c-10 -25 0 -61 19 -64 14 -3 17 4 17 37 0 30 -4 41 -15
41 -9 0 -18 -6 -21 -14z"/>
<path d="M2583 2444 c-3 -8 -1 -20 4 -25 7 -7 11 -2 11 15 0 29 -6 33 -15 10z"/>
<path d="M2540 2431 c0 -6 4 -13 10 -16 6 -3 7 1 4 9 -7 18 -14 21 -14 7z"/>
<path d="M2540 2331 c0 -6 5 -13 10 -16 6 -4 8 -11 5 -16 -4 -5 -1 -9 4 -9 14
0 14 17 1 25 -6 4 -8 11 -5 16 4 5 1 9 -4 9 -6 0 -11 -4 -11 -9z"/>
<path d="M2596 2314 c-8 -21 -8 -34 2 -34 4 0 8 11 8 25 2 29 -1 32 -10 9z"/>
<path d="M2547 2187 c-3 -9 1 -18 9 -21 16 -6 18 2 5 22 -7 11 -9 11 -14 -1z"/>
<path d="M2803 1000 c0 -36 2 -50 4 -32 2 17 2 47 0 65 -2 17 -4 3 -4 -33z"/>
</g>
</svg>
